<?xml version="1.0" encoding="UTF-8" standalone="no" ?>
<!DOCTYPE svg PUBLIC "-//W3C//DTD SVG 1.1//EN" "http://www.w3.org/Graphics/SVG/1.1/DTD/svg11.dtd">
<svg xmlns="http://www.w3.org/2000/svg" xmlns:xlink="http://www.w3.org/1999/xlink" version="1.1" width="1080" height="1080" viewBox="0 0 1080 1080" xml:space="preserve">
<desc>Created with Fabric.js 5.2.4</desc>
<defs>
</defs>
<g transform="matrix(1 0 0 1 540 540)" id="770c1ec1-bc1e-44f6-9f4b-2561171d4376"  >
<rect style="stroke: none; stroke-width: 1; stroke-dasharray: none; stroke-linecap: butt; stroke-dashoffset: 0; stroke-linejoin: miter; stroke-miterlimit: 4; fill: rgb(255,255,255); fill-rule: nonzero; opacity: 1; visibility: hidden;" vector-effect="non-scaling-stroke"  x="-540" y="-540" rx="0" ry="0" width="1080" height="1080" />
</g>
<g transform="matrix(1 0 0 1 540 540)" id="b3a1a231-ea78-4b12-b7f3-d75701f0ea9e"  >
</g>
<g transform="matrix(1.12 0 0 1.12 594.74 938.06)"  >
<path style="stroke: none; stroke-width: 1; stroke-dasharray: none; stroke-linecap: butt; stroke-dashoffset: 0; stroke-linejoin: miter; stroke-miterlimit: 4; fill: rgb(242,242,242); fill-rule: nonzero; opacity: 1;" vector-effect="non-scaling-stroke"  transform=" translate(-364.61, -685.74)" d="M 338.26592 719.40668 C 340.33184 719.53607 341.47361 716.9693000000001 339.9106 715.47333 L 339.75509999999997 714.85517 C 339.77558 714.8056700000001 339.79614999999995 714.75617 339.81687999999997 714.7067900000001 C 341.90610999999996 709.7249800000001 348.98679999999996 709.7593400000001 351.05827 714.74854 C 352.89686 719.1767000000001 355.23768 723.61243 355.81405 728.2945000000001 C 356.07243 730.3612700000001 355.95619 732.4668600000001 355.49757 734.4950000000001 C 359.80563 725.0844200000001 362.07272 714.8084200000001 362.07272 704.4742500000001 C 362.07272 701.8777500000001 361.9306 699.2812600000001 361.63998 696.6912900000001 C 361.40097 694.5727600000001 361.07158999999996 692.4672 360.64526 690.3809600000001 C 358.3395 679.10377 353.34674 668.3627100000001 346.14514 659.3913400000001 C 342.68316000000004 657.4988500000002 339.79608 654.5406900000002 338.05218 650.9948300000001 C 337.42568 649.7159300000001 336.93479 648.3402000000001 336.70227 646.93865 C 337.09625 646.99032 338.18784 640.9899800000001 337.89069 640.6218500000001 C 338.43975 639.7886900000001 339.42247000000003 639.3745100000001 340.02213 638.5615200000001 C 343.00445 634.5181200000001 347.11333 635.2241200000001 349.25834 640.71878 C 353.84058 643.03143 353.88493 646.86685 351.07329999999996 650.5556 C 349.28452999999996 652.90243 349.03873999999996 656.07794 347.46921999999995 658.5903900000001 C 347.63072999999997 658.79709 347.7986599999999 658.9973400000001 347.96012999999994 659.2040400000001 C 350.9211899999999 663.00192 353.48220999999995 667.0840800000001 355.64117999999996 671.3726200000001 C 355.03101 666.6064200000001 355.93183999999997 660.8644100000001 357.46759999999995 657.16303 C 359.21577999999994 652.9457100000001 362.49251999999996 649.3939 365.37805 645.74802 C 368.84405 641.36878 375.95140999999995 643.27997 376.56206999999995 648.83133 C 376.56798999999995 648.8850699999999 376.57372999999995 648.93878 376.5793699999999 648.99252 C 376.15077999999994 649.23431 375.73088999999993 649.49118 375.3207299999999 649.7624500000001 C 372.98124999999993 651.30969 373.7897899999999 654.93631 376.5617899999999 655.3642000000001 L 376.6245599999999 655.3738700000001 C 376.4695299999999 656.9175400000001 376.2047299999999 658.4483000000001 375.8172199999999 659.9532500000001 C 379.5189999999999 674.2690500000001 371.5271199999999 679.4831600000001 360.1157399999999 679.7173800000002 C 359.8638199999999 679.8465300000001 359.6183599999999 679.9757100000002 359.3664399999999 680.0984800000001 C 360.5225999999999 683.3537300000002 361.4462699999999 686.6929600000001 362.1308399999999 690.0773900000002 C 362.7444299999999 693.0678100000001 363.1707599999999 696.0905700000002 363.4096799999999 699.1262500000001 C 363.7068299999999 702.9563300000001 363.6809799999999 706.8058200000002 363.3580099999999 710.6294800000002 L 363.37738999999993 710.4938600000002 C 364.1976399999999 706.2827400000001 366.48410999999993 702.3492700000002 369.8039999999999 699.6235600000001 C 374.74961999999994 695.5609100000001 381.73682999999994 694.0648700000002 387.07224999999994 690.7993100000001 C 389.64057999999994 689.2273500000001 392.93168999999995 691.2587500000001 392.48346999999995 694.23638 L 392.46164999999996 694.37899 C 391.66722 694.7018700000001 390.89218999999997 695.07653 390.14295 695.4963300000001 C 389.71436 695.73818 389.29447 695.99499 388.88430999999997 696.2662600000001 C 386.54483 697.81356 387.35337 701.4402100000001 390.12537 701.8680700000001 L 390.18818 701.8777100000001 C 390.23338 701.8841800000001 390.27216 701.89065 390.3173 701.89718 C 388.95448 705.1330200000001 387.05561 708.13638 384.67875 710.7264 C 382.36411 723.22353 372.42271 724.4092 361.78852 720.76992 L 361.78205 720.76992 C 360.61945000000003 725.8336999999999 358.92077 730.78121 356.73765000000003 735.4961199999999 L 338.71746 735.4961199999999 C 338.65282 735.2959199999999 338.59472 735.0891999999999 338.53657000000004 734.8889399999999 C 340.20297000000005 734.9923299999999 341.88227000000006 734.89541 343.52287 734.5919399999999 C 342.18586 732.9513799999999 340.8489 731.2978699999999 339.5119 729.6573099999999 C 339.47961000000004 729.62502 339.45373 729.59273 339.42793 729.56045 C 338.74975 728.7208499999999 338.06511 727.8875999999999 337.38694 727.048 L 337.38657 727.04696 C 337.34412000000003 724.46938 337.6531 721.90035 338.26532000000003 719.40713 L 338.26588000000004 719.4067600000001 L 338.26591 719.4067000000001 Z" stroke-linecap="round" />
</g>
<g transform="matrix(1.12 0 0 1.12 244.48 938.06)"  >
<path style="stroke: none; stroke-width: 1; stroke-dasharray: none; stroke-linecap: butt; stroke-dashoffset: 0; stroke-linejoin: miter; stroke-miterlimit: 4; fill: rgb(242,242,242); fill-rule: nonzero; opacity: 1;" vector-effect="non-scaling-stroke"  transform=" translate(-51.15, -685.74)" d="M 77.50071 719.40674 L 77.50126999999999 719.40711 C 78.11349999999999 721.90034 78.42246999999999 724.46937 78.38001999999999 727.04694 L 78.37964999999998 727.0479799999999 C 77.70148999999998 727.88758 77.01683999999999 728.72083 76.33865999999999 729.5604299999999 C 76.31285999999999 729.5927199999999 76.28697999999999 729.6250099999999 76.25469 729.6572899999999 C 74.91767999999999 731.2978499999999 73.58072 732.9513599999999 72.24372 734.5919199999998 C 73.88431 734.8953899999998 75.56362 734.9923099999999 77.23002 734.8889199999999 C 77.17187 735.0891799999998 77.11376 735.2958999999998 77.04912999999999 735.4960999999998 L 59.02893999999999 735.4960999999998 C 56.84581999999999 730.7811999999999 55.14712999999999 725.8336899999998 53.98453999999999 720.7698999999999 L 53.97806999999999 720.7698999999999 C 43.343879999999984 724.4091799999999 33.40247999999999 723.2235099999999 31.08783999999999 710.72638 C 28.71097999999999 708.13635 26.81210999999999 705.1329999999999 25.44928999999999 701.89716 C 25.49442999999999 701.89063 25.53320999999999 701.88416 25.57840999999999 701.87769 L 25.64121999999999 701.86805 C 28.41321999999999 701.44019 29.22175999999999 697.8135500000001 26.88227999999999 696.26624 C 26.47211999999999 695.9949700000001 26.05222999999999 695.73816 25.62363999999999 695.49631 C 24.87439999999999 695.07651 24.09937999999999 694.70185 23.30493999999999 694.37897 L 23.28311999999999 694.23636 C 22.83490999999999 691.25873 26.12601999999999 689.2273299999999 28.69433999999999 690.79929 C 34.02975999999999 694.0648500000001 41.016969999999986 695.5608900000001 45.96258999999999 699.62354 C 49.28247999999999 702.3492500000001 51.56893999999999 706.28272 52.38919999999999 710.4938400000001 L 52.408579999999986 710.6294600000001 C 52.08560999999999 706.8057900000001 52.05975999999998 702.9563 52.356909999999985 699.1262300000001 C 52.595829999999985 696.0905500000001 53.022159999999985 693.0677900000001 53.63574999999999 690.0773700000001 C 54.32031999999999 686.6929400000001 55.243999999999986 683.3537100000001 56.40014999999999 680.09846 C 56.14822999999999 679.9756900000001 55.90276999999999 679.8465100000001 55.65084999999999 679.7173600000001 C 44.23946999999999 679.48314 36.24758999999999 674.26903 39.94936999999999 659.9532300000001 C 39.56185999999999 658.44829 39.29705999999999 656.9175200000001 39.14202999999999 655.3738500000001 L 39.20479999999999 655.36418 C 41.97679999999999 654.93629 42.78533999999999 651.3096800000001 40.44585999999999 649.76243 C 40.03569999999999 649.49116 39.61580999999999 649.23429 39.18721999999999 648.9925 C 39.19286999999999 648.93876 39.19859999999999 648.88505 39.20451999999999 648.8313099999999 C 39.81517999999999 643.2799499999999 46.92253999999999 641.36876 50.38853999999999 645.7479999999999 C 53.274069999999995 649.3938699999999 56.550799999999995 652.9456899999999 58.29898999999999 657.16301 C 59.83473999999999 660.8643999999999 60.73556999999999 666.6064 60.12540999999999 671.3726 C 62.284379999999985 667.08406 64.84539999999998 663.0019 67.80645999999999 659.20402 C 67.96792999999998 658.9973200000001 68.13584999999999 658.79707 68.29736999999999 658.59037 C 66.72784999999999 656.0779200000001 66.48205999999999 652.90241 64.69328999999999 650.55558 C 61.88165999999999 646.8668299999999 61.92599999999999 643.0314099999999 66.50824999999999 640.71876 C 68.65324999999999 635.2241 72.76213999999999 634.51811 75.74445999999999 638.5615 C 76.34411999999999 639.37449 77.32683999999999 639.78867 77.87589999999999 640.62183 C 77.57874999999999 640.98996 78.67032999999999 646.9903 79.06431999999998 646.93863 C 78.83178999999998 648.34018 78.34089999999998 649.71591 77.71440999999999 650.99481 C 75.97050999999999 654.5406800000001 73.08342999999999 657.49884 69.62144999999998 659.3913200000001 C 62.41984999999998 668.36269 57.42707999999998 679.1037500000001 55.12132999999998 690.38094 C 54.69499999999998 692.46718 54.36561999999998 694.57274 54.12660999999998 696.69127 C 53.83598999999998 699.28124 53.693869999999976 701.87773 53.693869999999976 704.47423 C 53.693869999999976 714.8084 55.96095999999998 725.0844000000001 60.269019999999976 734.49498 C 59.81039999999997 732.46684 59.694159999999975 730.36125 59.95253999999998 728.29448 C 60.528909999999975 723.6124100000001 62.869729999999976 719.17668 64.70831999999997 714.74852 C 66.77978999999998 709.75932 73.86047999999997 709.72496 75.94970999999997 714.70677 C 75.97044999999997 714.75615 75.99101999999996 714.80565 76.01148999999997 714.85515 L 75.85598999999996 715.47331 C 74.29298999999996 716.96928 75.43475999999997 719.5360499999999 77.50066999999996 719.40666 L 77.50069999999995 719.40672 Z" stroke-linecap="round" />
</g>
<g transform="matrix(1.12 0 0 1.12 425.13 486.55)"  >
<path style="stroke: none; stroke-width: 1; stroke-dasharray: none; stroke-linecap: butt; stroke-dashoffset: 0; stroke-linejoin: miter; stroke-miterlimit: 4; fill: rgb(63,61,86); fill-rule: nonzero; opacity: 1;" vector-effect="non-scaling-stroke"  transform=" translate(-212.82, -281.67)" d="M 268.34546 461.30273 L 157.30444 461.30273 L 157.42602 460.19335 L 196.80591 102.04443 L 234.37818000000001 102.04443 L 234.46363000000002 102.95019 L 268.34547000000003 461.30273 Z M 162.53589 459.30273 L 263.14722 459.30273 L 232.55786 104.04442999999998 L 198.5979 104.04442999999998 L 162.53589 459.30273 Z" stroke-linecap="round" />
</g>
<g transform="matrix(1.12 0 0 1.12 423.86 694.26)"  >
<path style="stroke: none; stroke-width: 1; stroke-dasharray: none; stroke-linecap: butt; stroke-dashoffset: 0; stroke-linejoin: miter; stroke-miterlimit: 4; fill: rgb(63,61,86); fill-rule: nonzero; opacity: 1;" vector-effect="non-scaling-stroke"  transform=" translate(-211.68, -467.56)" d="M 297.35962 475.81836 L 126.00464 475.81836 L 126.00464 459.30274 L 297.35962 459.30274 L 297.35962 475.81836 Z M 128.00464 473.81836 L 295.35962 473.81836 L 295.35962 461.30274 L 128.00464 461.30274 L 128.00464 473.81836 Z" stroke-linecap="round" />
</g>
<g transform="matrix(1.12 0 0 1.12 428.95 278.84)"  >
<path style="stroke: none; stroke-width: 1; stroke-dasharray: none; stroke-linecap: butt; stroke-dashoffset: 0; stroke-linejoin: miter; stroke-miterlimit: 4; fill: rgb(63,61,86); fill-rule: nonzero; opacity: 1;" vector-effect="non-scaling-stroke"  transform=" translate(-216.24, -95.79)" d="M 246.98657 104.04443 L 185.49536 104.04443 L 185.49536 87.52832000000001 L 246.98657 87.52832000000001 L 246.98657 104.04443 Z M 187.49536 102.04443 L 244.98657 102.04443 L 244.98657 89.52832000000001 L 187.49536 89.52832000000001 L 187.49536 102.04443 Z" stroke-linecap="round" />
</g>
<g transform="matrix(1.12 0 0 1.12 495.75 770.86)"  >
<path style="stroke: none; stroke-width: 1; stroke-dasharray: none; stroke-linecap: butt; stroke-dashoffset: 0; stroke-linejoin: miter; stroke-miterlimit: 4; fill: rgb(63,61,86); fill-rule: nonzero; opacity: 1;" vector-effect="non-scaling-stroke"  transform=" translate(-276.02, -536.11)" d="M 275.9727 500.02649 L 299.56266999999997 596.3964900000001 L 307.76268 596.3964900000001 L 275.9727 500.0264900000001 Z M 299.56266999999997 596.3964900000001 L 276.33268999999996 596.3964900000001 L 252.54270999999994 499.19648000000007 L 252.05271999999994 497.19648000000007 L 246.82267999999993 475.81648000000007 L 267.99271999999996 475.81648000000007 L 275.04270999999994 497.19648000000007 L 275.70267999999993 499.19648000000007 L 275.9726999999999 500.02650000000006 L 275.7726899999999 499.19648000000007 L 275.2826999999999 497.19648000000007 L 269.5626699999999 473.81648000000007 L 244.28269999999992 473.81648000000007 L 250.0026699999999 497.19648000000007 L 250.4927199999999 499.19648000000007 L 274.7726899999999 598.3964900000001 L 300.0527199999999 598.3964900000001 L 299.5626699999999 596.3964900000001 Z" stroke-linecap="round" />
</g>
<g transform="matrix(1.12 0 0 1.12 350.82 770.86)"  >
<path style="stroke: none; stroke-width: 1; stroke-dasharray: none; stroke-linecap: butt; stroke-dashoffset: 0; stroke-linejoin: miter; stroke-miterlimit: 4; fill: rgb(63,61,86); fill-rule: nonzero; opacity: 1;" vector-effect="non-scaling-stroke"  transform=" translate(-146.32, -536.11)" d="M 147.96269 497.19648 L 147.26268000000002 499.19648 L 113.56267000000003 596.39649 L 123.80272000000002 596.39649 L 147.59270000000004 499.19647999999995 L 148.08269000000004 497.19647999999995 L 148.37273000000005 496.00647999999995 L 147.96270000000004 497.19647999999995 Z M 153.80272000000002 473.81648 L 148.37273000000002 496.00648 L 155.37273000000002 475.81648 L 176.53270000000003 475.81648 L 171.30272000000002 497.19648 L 170.81267000000003 499.19648 L 147.02269 596.39649 L 123.80272000000001 596.39649 L 123.31267000000001 598.39649 L 148.5927 598.39649 L 172.87273000000002 499.19647999999995 L 173.36272000000002 497.19647999999995 L 179.08269 473.81647999999996 L 153.80272000000002 473.81647999999996 Z" stroke-linecap="round" />
</g>
<g transform="matrix(1.12 0 0 1.12 547.95 924.39)"  >
<polygon style="stroke: none; stroke-width: 1; stroke-dasharray: none; stroke-linecap: butt; stroke-dashoffset: 0; stroke-linejoin: miter; stroke-miterlimit: 4; fill: rgb(63,61,86); fill-rule: nonzero; opacity: 1;" vector-effect="non-scaling-stroke"  points="41.88,61.99 -1.06,61.99 -41.88,-3.02 -40.04,-3.81 0.25,59.99 36.84,59.99 -13.21,-61.2 -11.38,-61.99 41.88,61.99 " />
</g>
<g transform="matrix(1.12 0 0 1.12 296.52 924.39)"  >
<polygon style="stroke: none; stroke-width: 1; stroke-dasharray: none; stroke-linecap: butt; stroke-dashoffset: 0; stroke-linejoin: miter; stroke-miterlimit: 4; fill: rgb(63,61,86); fill-rule: nonzero; opacity: 1;" vector-effect="non-scaling-stroke"  points="1.06,61.99 -41.88,61.99 11.38,-61.99 13.21,-61.2 -36.84,59.99 -0.25,59.99 40.04,-3.81 41.88,-3.02 1.06,61.99 " />
</g>
<g transform="matrix(1.12 0 0 1.12 427.56 847.46)"  >
<path style="stroke: none; stroke-width: 1; stroke-dasharray: none; stroke-linecap: butt; stroke-dashoffset: 0; stroke-linejoin: miter; stroke-miterlimit: 4; fill: rgb(63,61,86); fill-rule: nonzero; opacity: 1;" vector-effect="non-scaling-stroke"  transform=" translate(-214.99, -604.66)" d="M 380.83521 612.91504 L 49.15308 612.91504 L 49.15308 596.39942 L 380.83521 596.39942 L 380.83521 612.91504 Z M 51.153080000000045 610.91504 L 378.83521 610.91504 L 378.83521 598.39942 L 51.15308 598.39942 L 51.15308 610.91504 Z" stroke-linecap="round" />
</g>
<g transform="matrix(1.12 0 0 1.12 422.01 941.45)"  >
<path style="stroke: none; stroke-width: 1; stroke-dasharray: none; stroke-linecap: butt; stroke-dashoffset: 0; stroke-linejoin: miter; stroke-miterlimit: 4; fill: rgb(63,61,86); fill-rule: nonzero; opacity: 1;" vector-effect="non-scaling-stroke"  transform=" translate(-210.03, -688.77)" d="M 301.63697 703.97266 C 240.85059 679.00196 179.20775000000003 679.00196 118.41885000000002 703.97266 L 117.21313000000002 702.2050800000001 C 175.25393000000003 667.09414 229.52169000000004 661.07878 302.84269 702.2050800000001 L 301.63697 703.97266 Z" stroke-linecap="round" />
</g>
<g transform="matrix(1.12 0 0 1.12 422.43 916.94)"  >
<path style="stroke: none; stroke-width: 1; stroke-dasharray: none; stroke-linecap: butt; stroke-dashoffset: 0; stroke-linejoin: miter; stroke-miterlimit: 4; fill: rgb(63,61,86); fill-rule: nonzero; opacity: 1;" vector-effect="non-scaling-stroke"  transform=" translate(-210.41, -666.84)" d="M 296.62708 677.21973 C 239.41627999999997 652.2119200000001 181.39866999999998 652.2119200000001 124.18786999999998 677.21973 L 123.31079999999997 675.40137 C 181.10426999999999 650.1396500000001 239.71068999999997 650.1396500000001 297.50415999999996 675.40137 L 296.62708999999995 677.21973 Z" stroke-linecap="round" />
</g>
<g transform="matrix(1.12 0 0 1.12 423.67 728.5)"  >
<polygon style="stroke: none; stroke-width: 1; stroke-dasharray: none; stroke-linecap: butt; stroke-dashoffset: 0; stroke-linejoin: miter; stroke-miterlimit: 4; fill: rgb(63,61,86); fill-rule: nonzero; opacity: 1;" vector-effect="non-scaling-stroke"  points="64.26,1 -64.26,1 -63.55,-1 63.77,-1 64.26,1 " />
</g>
<g transform="matrix(1.12 0 0 1.12 423.48 740.26)"  >
<polygon style="stroke: none; stroke-width: 1; stroke-dasharray: none; stroke-linecap: butt; stroke-dashoffset: 0; stroke-linejoin: miter; stroke-miterlimit: 4; fill: rgb(63,61,86); fill-rule: nonzero; opacity: 1;" vector-effect="non-scaling-stroke"  points="67.5,2.07 -67.5,2.07 -65.5,-2.07 66.5,-2.07 67.5,2.07 " />
</g>
<g transform="matrix(1.12 0 0 1.12 428.22 253.19)"  >
<path style="stroke: none; stroke-width: 1; stroke-dasharray: none; stroke-linecap: butt; stroke-dashoffset: 0; stroke-linejoin: miter; stroke-miterlimit: 4; fill: rgb(63,61,86); fill-rule: nonzero; opacity: 1;" vector-effect="non-scaling-stroke"  transform=" translate(-215.58, -72.83)" d="M 234.46802 89.62842 L 196.70191 89.62842 L 196.70191 56.03467 L 234.46802 56.03467 L 234.46802 89.62842 Z M 198.70191 87.62842 L 232.46802 87.62842 L 232.46802 60.034670000000006 L 200.70191 58.034670000000006 L 198.70191 87.62842 Z" stroke-linecap="round" />
</g>
<g transform="matrix(1.12 0 0 1.12 427.56 204.23)"  >
<path style="stroke: none; stroke-width: 1; stroke-dasharray: none; stroke-linecap: butt; stroke-dashoffset: 0; stroke-linejoin: miter; stroke-miterlimit: 4; fill: rgb(63,61,86); fill-rule: nonzero; opacity: 1;" vector-effect="non-scaling-stroke"  transform=" translate(-214.99, -29.02)" d="M 220.75757 58.03467 L 209.23022999999998 58.03467 L 209.23022999999998 0 L 220.75757 0 L 220.75757 58.03467 Z M 211.23022999999998 56.03467 L 218.75757 56.03467 L 215.84269999999998 1.6565000000000012 L 211.23022999999998 2.0000000000000013 L 211.23022999999998 56.03467 Z" stroke-linecap="round" />
</g>
<g transform="matrix(1.12 0 0 1.12 547.95 633.29)"  >
<path style="stroke: none; stroke-width: 1; stroke-dasharray: none; stroke-linecap: butt; stroke-dashoffset: 0; stroke-linejoin: miter; stroke-miterlimit: 4; fill: rgb(108,99,255); fill-rule: nonzero; opacity: 1;" vector-effect="non-scaling-stroke"  transform=" translate(-322.74, -412.99)" d="M 325.32943 404.17186 L 325.3294 404.17186 C 323.51263 399.49048 318.24487000000005 397.16826 313.56350000000003 398.98501 L 313.56347000000005 398.98501 C 308.92651000000006 400.78454 306.6067100000001 405.96956 308.32858000000004 410.61717999999996 L 308.19278 410.66988 L 314.77185000000003 427.62264 L 330.37143000000003 421.56871 C 330.88718000000006 421.46678 331.40131 421.32143 331.90842000000004 421.12462 L 331.90845 421.12462 C 336.58982000000003 419.30785 338.91205 414.04007 337.09528 409.3587 L 337.09528 409.35868 C 335.27851 404.67731 330.01075000000003 402.35509 325.32938 404.17184 L 325.32944000000003 404.17186999999996 Z" stroke-linecap="round" />
</g>
<g transform="matrix(1.12 0 0 1.12 387.04 817.66)"  >
<path style="stroke: none; stroke-width: 1; stroke-dasharray: none; stroke-linecap: butt; stroke-dashoffset: 0; stroke-linejoin: miter; stroke-miterlimit: 4; fill: rgb(108,99,255); fill-rule: nonzero; opacity: 1;" vector-effect="non-scaling-stroke"  transform=" translate(-178.74, -577.99)" d="M 181.32943 569.17186 L 181.3294 569.17186 C 179.51263 564.49048 174.24487 562.16826 169.5635 563.98501 L 169.56347 563.98501 C 164.92651 565.78454 162.60671 570.96956 164.32858 575.61718 L 164.19278 575.6698799999999 L 170.77185 592.6226399999999 L 186.37143 586.5687099999999 C 186.88718 586.4667799999999 187.40131 586.3214299999999 187.90842 586.1246199999999 L 187.90845000000002 586.1246199999999 C 192.58982 584.3078499999999 194.91205000000002 579.0400699999999 193.09528 574.3586999999999 L 193.09528 574.3586799999999 C 191.27851 569.6773099999999 186.01075 567.3550899999999 181.32938000000001 569.17184 L 181.32944 569.17187 Z" stroke-linecap="round" />
</g>
<g transform="matrix(1.12 0 0 1.12 356.27 422.68)"  >
<path style="stroke: none; stroke-width: 1; stroke-dasharray: none; stroke-linecap: butt; stroke-dashoffset: 0; stroke-linejoin: miter; stroke-miterlimit: 4; fill: rgb(108,99,255); fill-rule: nonzero; opacity: 1;" vector-effect="non-scaling-stroke"  transform=" translate(-151.2, -224.51)" d="M 147.09623 218.66939 L 147.09623 218.66941 L 147.09620999999999 218.66941 C 142.09661999999997 218.20048 137.66350999999997 221.8733 137.19458999999998 226.8729 L 137.19458999999998 226.87293 C 136.73010999999997 231.82509 140.32999999999998 236.21903 145.25697999999997 236.75771 L 145.24337999999997 236.90273 L 163.34852999999998 238.60087 L 164.91111999999998 221.94087 C 165.05062999999998 221.434 165.15058 220.90915999999999 165.20137999999997 220.36756 L 165.20137999999997 220.36753 C 165.67030999999997 215.36793999999998 161.99746999999996 210.93482999999998 156.99787999999998 210.46589999999998 L 156.99785999999997 210.46589999999998 C 151.99826999999996 209.99696999999998 147.56515999999996 213.66978999999998 147.09623999999997 218.66938999999996 L 147.09621999999996 218.66938999999996 Z" stroke-linecap="round" />
</g>
<g transform="matrix(1.12 0 0 1.12 581.47 993.66)"  >
<rect style="stroke: none; stroke-width: 1; stroke-dasharray: none; stroke-linecap: butt; stroke-dashoffset: 0; stroke-linejoin: miter; stroke-miterlimit: 4; fill: rgb(63,61,86); fill-rule: nonzero; opacity: 1;" vector-effect="non-scaling-stroke"  x="-352.73706" y="-1" rx="0" ry="0" width="705.47412" height="2" />
</g>
</svg>